<svg width="25" height="23" viewBox="0 0 25 23" fill="none" xmlns="http://www.w3.org/2000/svg">
<path d="M11.8073 10.5576C12.3649 9.9984 12.8121 9.30677 13.1186 8.52964C13.425 7.75252 13.5837 6.90809 13.5837 6.05367C13.5837 4.44813 13.0332 2.90836 12.0534 1.77308C11.0737 0.637795 9.7448 0 8.35918 0C6.97356 0 5.64469 0.637795 4.66491 1.77308C3.68513 2.90836 3.13469 4.44813 3.13469 6.05367C3.13468 6.90809 3.29331 7.75252 3.5998 8.52964C3.9063 9.30677 4.35348 9.9984 4.91102 10.5576C3.44831 11.3251 2.20731 12.5644 1.3364 14.1275C0.465497 15.6906 0.00153794 17.5112 0 19.3717C0 19.6928 0.110087 20.0008 0.306043 20.2279C0.501999 20.4549 0.767773 20.5825 1.0449 20.5825C1.32202 20.5825 1.58779 20.4549 1.78375 20.2279C1.97971 20.0008 2.08979 19.6928 2.08979 19.3717C2.08979 17.4451 2.75032 15.5974 3.92605 14.235C5.10179 12.8727 6.69643 12.1073 8.35918 12.1073C10.0219 12.1073 11.6166 12.8727 12.7923 14.235C13.968 15.5974 14.6286 17.4451 14.6286 19.3717C14.6286 19.6928 14.7386 20.0008 14.9346 20.2279C15.1306 20.4549 15.3963 20.5825 15.6735 20.5825C15.9506 20.5825 16.2164 20.4549 16.4123 20.2279C16.6083 20.0008 16.7184 19.6928 16.7184 19.3717C16.7168 17.5112 16.2529 15.6906 15.3819 14.1275C14.511 12.5644 13.27 11.3251 11.8073 10.5576ZM8.35918 9.68587C7.73919 9.68587 7.13313 9.47284 6.61764 9.07373C6.10214 8.67462 5.70036 8.10735 5.4631 7.44365C5.22584 6.77995 5.16377 6.04964 5.28472 5.34506C5.40567 4.64048 5.70422 3.99329 6.14262 3.48531C6.58101 2.97734 7.13956 2.63141 7.74763 2.49126C8.3557 2.35111 8.98598 2.42304 9.55877 2.69795C10.1316 2.97286 10.6211 3.43841 10.9656 4.03572C11.31 4.63304 11.4939 5.33528 11.4939 6.05367C11.4939 7.01699 11.1636 7.94085 10.5757 8.62202C9.98787 9.30319 9.19055 9.68587 8.35918 9.68587Z" fill="white"/>
<path d="M19.3608 4.99432V14.3693H20.9517V4.99432H19.3608ZM15.4687 8.88636V10.4773H24.8437V8.88636H15.4687Z" fill="white"/>
</svg>
