<svg width="23" height="21" viewBox="0 0 23 21" fill="none" xmlns="http://www.w3.org/2000/svg">
<path d="M20.768 1L22 2.39919M17.534 7.47127L21.076 3.44859L19.844 2.04939L16.302 6.07207L15.84 7.99597L17.534 7.47127Z" stroke="white" stroke-linecap="round" stroke-linejoin="round"/>
<path d="M12.0085 11.7093C12.8713 10.9384 13.501 9.8813 13.8101 8.68501C14.1192 7.48872 14.0923 6.21276 13.7331 5.03464C13.374 3.85652 12.7004 2.83483 11.8062 2.11171C10.9119 1.38859 9.84147 1 8.74371 1C7.64595 1 6.57549 1.38859 5.68125 2.11171C4.787 2.83483 4.11345 3.85652 3.7543 5.03464C3.39514 6.21276 3.36824 7.48872 3.67734 8.68501C3.98644 9.8813 4.61616 10.9384 5.47891 11.7093C4.00058 12.382 2.71068 13.4976 1.74673 14.9374C0.782786 16.3771 0.180923 18.0869 0.00530802 19.8846C-0.00740394 20.0159 0.00277057 20.1487 0.0352504 20.2754C0.0677302 20.4022 0.121879 20.5205 0.194606 20.6235C0.341485 20.8316 0.555118 20.9648 0.788508 20.994C1.0219 21.0231 1.25593 20.9458 1.43911 20.779C1.6223 20.6122 1.73964 20.3695 1.76531 20.1045C1.95854 18.1508 2.77879 16.3465 4.06934 15.0362C5.35989 13.7259 7.03026 13.0016 8.76131 13.0016C10.4924 13.0016 12.1627 13.7259 13.4533 15.0362C14.7438 16.3465 15.5641 18.1508 15.7573 20.1045C15.7812 20.3501 15.8844 20.5769 16.0469 20.7411C16.2094 20.9054 16.4198 20.9955 16.6373 20.994H16.7341C16.9648 20.9638 17.1756 20.8314 17.3207 20.6254C17.4657 20.4195 17.5332 20.1568 17.5085 19.8946C17.3321 18.0918 16.727 16.3776 15.7581 14.9357C14.7892 13.4937 13.493 12.3784 12.0085 11.7093V11.7093ZM8.74371 10.9997C8.04752 10.9997 7.36696 10.7653 6.7881 10.326C6.20924 9.88672 5.75807 9.26237 5.49165 8.53189C5.22523 7.8014 5.15552 6.9976 5.29134 6.22212C5.42716 5.44665 5.76241 4.73433 6.25469 4.17524C6.74697 3.61615 7.37418 3.23541 8.05699 3.08115C8.7398 2.9269 9.44756 3.00607 10.0908 3.30865C10.734 3.61122 11.2837 4.12362 11.6705 4.78103C12.0573 5.43845 12.2637 6.21137 12.2637 7.00204C12.2637 8.06229 11.8929 9.07912 11.2327 9.82883C10.5726 10.5785 9.67727 10.9997 8.74371 10.9997Z" fill="white"/>
</svg>
