<svg width="31" height="30" viewBox="0 0 31 30" fill="none" xmlns="http://www.w3.org/2000/svg">
<path d="M13.646 19.7155C14.6264 18.9442 15.342 17.8864 15.6933 16.6894C16.0445 15.4925 16.014 14.2158 15.6058 13.037C15.1977 11.8582 14.4323 10.8359 13.4161 10.1124C12.3999 9.38881 11.1835 9 9.93603 9C8.68858 9 7.47215 9.38881 6.45596 10.1124C5.43978 10.8359 4.67438 11.8582 4.26624 13.037C3.85811 14.2158 3.82754 15.4925 4.17879 16.6894C4.53004 17.8864 5.24564 18.9442 6.22603 19.7155C4.54611 20.3885 3.08032 21.5048 1.98492 22.9454C0.88953 24.386 0.205595 26.0968 0.00603184 27.8955C-0.00841357 28.0268 0.00314838 28.1597 0.0400573 28.2866C0.0769662 28.4134 0.138499 28.5317 0.221143 28.6348C0.388051 28.843 0.630815 28.9763 0.896032 29.0055C1.16125 29.0347 1.42719 28.9573 1.63536 28.7904C1.84352 28.6235 1.97686 28.3807 2.00603 28.1155C2.22562 26.1607 3.15772 24.3553 4.62425 23.0443C6.09078 21.7333 7.98893 21.0085 9.95603 21.0085C11.9231 21.0085 13.8213 21.7333 15.2878 23.0443C16.7543 24.3553 17.6864 26.1607 17.906 28.1155C17.9332 28.3612 18.0505 28.5882 18.2351 28.7525C18.4198 28.9169 18.6588 29.007 18.906 29.0055H19.016C19.2782 28.9753 19.5178 28.8428 19.6826 28.6367C19.8474 28.4307 19.9241 28.1679 19.896 27.9055C19.6955 26.1017 19.0079 24.3865 17.9069 22.9437C16.8059 21.5009 15.3329 20.385 13.646 19.7155V19.7155ZM9.93603 19.0055C9.14491 19.0055 8.37155 18.7709 7.71375 18.3314C7.05595 17.8918 6.54326 17.2671 6.24051 16.5362C5.93776 15.8053 5.85855 15.0011 6.01289 14.2251C6.16723 13.4492 6.54819 12.7365 7.1076 12.1771C7.66701 11.6177 8.37975 11.2367 9.15567 11.0824C9.9316 10.928 10.7359 11.0072 11.4668 11.31C12.1977 11.6127 12.8224 12.1254 13.2619 12.7832C13.7014 13.441 13.936 14.2144 13.936 15.0055C13.936 16.0664 13.5146 17.0838 12.7645 17.8339C12.0143 18.5841 10.9969 19.0055 9.93603 19.0055Z" fill="#00AFEF"/>
<path d="M22.7955 18.0057V8.63068H24.3864V18.0057H22.7955ZM18.9034 14.1136V12.5227H28.2784V14.1136H18.9034Z" fill="#00AFEF"/>
</svg>
