<svg width="1353" height="1069" viewBox="0 0 1353 1069" fill="none" xmlns="http://www.w3.org/2000/svg">
<path opacity="0.1" d="M1158.61 1025.16C1165.51 1024.36 1417.89 843.115 1297.51 654.025C1177.13 464.935 914.828 495.425 954.538 413.045C994.248 330.665 914.418 -64.6847 600.138 9.13533C285.858 82.9553 253.328 303.395 389.838 442.915C526.348 582.435 325.208 740.985 207.148 604.115C89.0876 467.245 -75.2824 678.775 38.1576 774.415C151.598 870.055 54.3575 1152.48 1158.61 1025.16Z" fill="#00AFEF"/>
<path d="M999.238 793.656C999.238 793.656 978.038 849.536 973.408 871.366C968.778 893.196 968.888 914.556 968.888 914.556L929.228 905.776C929.228 905.776 938.478 788.226 947.268 779.946C956.048 771.666 998.708 775.136 998.708 775.136L999.238 793.656Z" fill="#00AFEF"/>
<path d="M1044.78 764.196C1044.78 764.196 1052.12 855.846 1056.75 871.366C1061.38 886.886 1103.37 947.366 1103.37 947.366L1058.52 935.906C1058.52 935.906 1011.06 887.826 990.838 786.516C976.578 715.006 1025.86 733.586 1044.78 764.196V764.196Z" fill="#00AFEF"/>
<path d="M954.748 636.295C954.748 636.295 904.198 629.945 879.608 618.995C855.018 608.035 780.878 562.575 780.878 562.575L792.928 547.985C792.928 547.985 862.298 583.775 875.948 590.955C889.598 598.135 956.608 608.835 956.608 608.835L954.748 636.295V636.295Z" fill="#FFE3CA"/>
<path d="M1036.55 654.175C1038.34 698.755 1042.93 762.575 1044.78 764.195C1044.78 764.195 1022.6 782.035 1003.95 785.045C985.308 788.055 943.818 788.295 943.818 788.295C943.818 788.295 956.478 702.315 956.898 688.275C957.318 674.235 951.928 622.385 951.928 622.385C1044.78 567.815 1036.49 652.655 1036.55 654.175V654.175Z" fill="#FFCC29"/>
<path d="M986.178 595.645L986.298 604.545C986.388 611.085 991.888 616.245 998.428 615.915L1000.28 615.825C1006.6 615.505 1011.49 610.145 1011.22 603.815L1010.84 594.705C1010.54 587.675 1004.08 582.545 997.158 583.855L995.568 584.155C990.068 585.195 986.108 590.045 986.178 595.645V595.645Z" fill="#FCD2B1"/>
<path d="M967.048 542.495C967.048 542.495 956.258 573.085 965.768 590.355C975.278 607.625 1010.36 601.225 1016.35 577.215C1029.53 524.355 982.188 526.745 967.048 542.495Z" fill="#FFE3CA"/>
<path d="M990.718 642.675C990.718 642.675 957.428 650.375 920.178 634.665L927.468 602.235L986.298 604.555C986.298 604.545 988.298 621.955 990.718 642.675V642.675Z" fill="#FFCC29"/>
<path d="M1030.03 612.806C1028.41 614.456 1050.38 686.006 1021.98 710.876C1006.32 724.586 932.648 744.096 932.648 744.096C931.998 744.966 927.468 746.276 922.898 747.396C915.818 749.136 908.348 746.896 903.378 741.566C903.008 741.166 902.668 740.796 902.368 740.466C901.91 739.956 901.568 739.354 901.366 738.699C901.164 738.045 901.106 737.354 901.198 736.676C901.408 735.096 902.109 733.621 903.201 732.461C904.294 731.3 905.723 730.511 907.288 730.206C908.658 729.936 910.058 729.726 911.188 729.686C918.008 729.466 923.398 732.246 930.138 732.006L934.378 731.856C934.378 731.856 993.818 707.476 1001.76 701.336C1025.85 682.696 1014.35 650.266 1016.46 637.106L1030.03 612.806V612.806Z" fill="#FCD2B1"/>
<path d="M946.668 734.446C946.668 734.446 933.798 726.656 925.678 726.226C921.998 726.036 915.828 723.906 913.898 721.986C911.968 720.056 910.428 727.526 913.708 728.686C916.988 729.846 925.118 731.676 923.268 735.796L946.668 734.446Z" fill="#FCD2B1"/>
<path d="M1015.43 606.175C1015.43 606.175 1044.78 604.115 1047.78 670.095L1010.4 680.395C1010.4 680.395 982.208 641.505 1015.43 606.175V606.175Z" fill="#FFCC29"/>
<path d="M782.098 565.255C782.098 565.255 788.668 566.005 798.918 564.995C809.168 563.975 803.688 560.075 803.688 560.075L797.578 551.895C797.578 551.895 792.208 538.705 785.458 534.555C783.878 533.585 783.278 532.765 782.118 531.395C781.068 530.155 768.638 528.825 779.658 537.355C782.548 539.595 782.148 541.455 780.438 541.475C778.728 541.495 766.968 531.465 762.778 533.905C751.178 540.685 758.378 555.375 764.378 558.325C770.208 561.175 782.098 565.255 782.098 565.255V565.255Z" fill="#FFE3CA"/>
<path d="M1022.77 534.266C1022.45 534.996 1021.44 535.076 1021.05 534.386C1017.91 528.786 1007.16 512.716 989.168 516.826C970.328 521.136 960.968 534.626 955.998 532.026C955.228 531.616 954.338 532.286 954.588 533.116C955.478 536.086 957.758 539.756 963.628 538.906C964.168 538.826 964.668 539.246 964.698 539.796C964.828 542.116 964.398 547.376 957.858 546.996C957.068 546.946 956.538 547.796 956.958 548.466C958.158 550.376 960.698 552.986 964.968 551.096C965.218 550.986 965.408 550.766 965.498 550.506C966.118 548.666 969.278 541.066 978.628 541.766C978.978 541.796 979.288 542.036 979.438 542.356C980.038 543.696 982.518 547.236 992.268 549.056C1003.68 551.186 1006.95 559.646 1001.89 565.466C1001.4 566.026 1001.69 566.916 1002.42 567.046C1004.82 567.446 1009.22 567.356 1011.69 562.276C1015.2 555.046 1020.57 562.066 1018.1 566.206C1015.84 569.976 1016.5 581.836 1010.83 587.956C1010.25 588.576 1010.76 589.596 1011.61 589.546C1014.6 589.346 1019.44 588.416 1022.04 584.596C1025.97 578.806 1036.92 570.756 1033.4 554.846C1030.16 540.156 1027.2 534.446 1032.57 530.736C1033.22 530.286 1033.14 529.296 1032.4 529.026C1030 528.166 1025.64 527.736 1022.77 534.266V534.266Z" fill="black"/>
<path d="M615.498 429.405C615.498 429.405 653.998 482.875 673.848 501.055C691.068 516.835 736.138 538.165 751.108 546.095L754.688 547.985L760.968 535.635C760.968 535.635 700.498 493.275 688.468 483.605C676.448 473.945 641.738 421.305 641.738 421.305L615.498 429.405ZM586.498 412.435C584.528 411.225 499.568 424.875 480.408 416.755C461.248 408.635 418.838 346.345 418.838 346.345L405.718 338.385C400.496 335.217 396.279 330.633 393.558 325.165L390.778 319.585C387.828 313.655 392.158 306.695 398.788 306.725L410.958 310.445C415.627 311.871 419.856 314.461 423.249 317.972C426.641 321.483 429.084 325.8 430.348 330.515L431.448 334.615C431.448 334.615 481.898 388.155 490.458 393.395C499.008 398.635 540.808 386.265 554.098 385.365L586.498 412.435V412.435Z" fill="#B97A59"/>
<path d="M465.858 600.955C465.858 600.955 554.398 593.115 594.478 517.525L542.048 521.185C542.048 521.185 440.578 577.505 432.858 588.295C425.138 599.085 446.748 734.335 446.748 734.335H467.968L465.858 600.955V600.955Z" fill="#00AFEF"/>
<path d="M542.048 521.185C542.048 521.185 553.628 656.395 579.858 708.095C606.098 759.795 639.278 832.335 639.278 832.335L665.068 825.385L607.638 674.135C607.638 674.135 600.778 601.595 602.238 592.335C603.698 583.075 617.448 546.065 603.558 517.515L542.048 521.185V521.185Z" fill="#00AFEF"/>
<path d="M514.078 392.035L517.068 424.265C517.068 424.265 541.578 427.665 541.278 429.155C532.218 472.845 517.268 535.055 515.178 536.345C515.178 536.345 538.818 538.485 556.718 544.505C574.618 550.525 608.808 567.825 608.808 567.825C608.808 567.825 612.398 489.735 614.288 475.825C616.168 461.905 629.958 411.635 629.958 411.635C582.758 365.285 514.078 392.035 514.078 392.035Z" fill="#FFCC29"/>
<path d="M600.528 379.635L598.958 388.395C597.798 394.835 591.528 399.025 585.138 397.625L583.328 397.225C577.138 395.875 573.198 389.785 574.498 383.585L579.098 361.595L593.148 366.745C598.408 368.695 601.518 374.125 600.528 379.635V379.635Z" fill="#A86D52"/>
<path d="M631.368 336.155C631.368 336.155 627.988 372.215 613.278 385.345C598.568 398.475 568.918 376.315 571.228 351.685C576.348 297.435 622.308 316.265 631.368 336.155V336.155Z" fill="#B97A59"/>
<path d="M605.238 393.615C605.238 393.615 636.568 407.255 657.118 442.065L631.938 463.765L603.548 436.565C603.558 436.565 594.838 411.685 605.238 393.615V393.615Z" fill="#FFCC29"/>
<path d="M81.6477 1068.48C81.6477 1068.48 229.418 750.295 403.428 750.525C604.968 750.785 460.148 860.485 662.708 866.275C865.268 872.065 1265.68 992.205 1265.68 992.205L1352.49 1068.47H81.6477V1068.48Z" fill="#00A859"/>
<path d="M450.798 734.325L449.308 735.195C440.908 740.095 431.778 743.565 422.338 745.875C402.818 750.635 400.938 760.185 400.938 760.185C400.208 761.505 406.288 765.225 407.788 765.105L439.678 758.165C445.133 756.976 450.737 756.625 456.298 757.125L465.278 757.925C469.448 757.845 472.488 753.955 471.548 749.885L467.968 734.325H450.798V734.325ZM639.278 832.325C639.278 832.325 631.948 859.045 611.688 857.315C611.688 857.315 600.518 875.165 630.788 870.625C642.368 868.885 644.808 853.845 668.988 857.605C675.668 858.645 679.408 850.665 679.408 850.665C681.928 842.015 675.238 837.005 669.298 830.225L665.068 825.385L639.278 832.325V832.325ZM367.018 755.705L356.858 754.955L420.338 154.385L430.488 155.135L367.018 755.705Z" fill="black"/>
<path d="M420.218 160.365C420.218 160.365 339.818 99.135 307.468 139.945C264.768 193.805 235.908 173.435 221.018 157.035C221.018 157.035 234.098 189.715 179.078 241.595C179.078 241.595 251.838 294.785 292.438 261.985C333.028 229.185 401.438 265.905 409.758 291.305L420.218 160.365V160.365Z" fill="#ED3237"/>
<path d="M755.528 550.975C755.528 550.975 750.288 546.945 743.628 539.075C736.978 531.215 743.628 532.215 743.628 532.215L753.708 530.585C753.708 530.585 766.738 524.845 774.478 526.565C776.288 526.965 777.288 526.795 779.078 526.615C780.688 526.455 790.548 534.145 776.698 532.605C773.068 532.205 772.058 533.815 773.268 535.025C774.478 536.235 789.908 537.215 791.218 541.885C794.828 554.825 779.428 560.365 773.068 558.305C766.898 556.315 755.528 550.975 755.528 550.975V550.975Z" fill="#B97A59"/>
<path d="M584.568 325.845C584.568 325.845 590.278 343.385 610.538 341.075C630.798 338.755 628.318 353.875 628.318 353.875C628.318 353.875 645.368 338.595 631.748 325.855C618.118 313.105 612.948 296.525 584.568 310.605C556.188 324.685 562.958 351.125 570.658 361.725L573.078 364.155C574.588 365.665 577.108 365.375 578.218 363.555L578.228 363.535C578.888 362.455 578.868 361.105 578.188 360.035C576.208 356.905 572.678 350.135 576.028 346.175C578.078 343.755 579.668 344.265 580.798 345.525C582.648 347.605 585.528 348.415 588.098 347.335L588.298 347.255C588.298 347.245 597.898 337.435 584.568 325.845V325.845Z" fill="black"/>
<line x1="426.378" y1="153.241" x2="362.608" y2="760.799" stroke="black" stroke-width="11"/>
</svg>
