<svg width="1014" height="768" viewBox="0 0 1014 768" fill="none" xmlns="http://www.w3.org/2000/svg">
<path d="M943.07 383.1C981.923 383.1 1013.42 351.603 1013.42 312.75C1013.42 273.897 981.923 242.4 943.07 242.4C904.217 242.4 872.72 273.897 872.72 312.75C872.72 351.603 904.217 383.1 943.07 383.1Z" stroke="#C1C1C1" stroke-miterlimit="10" stroke-dasharray="12.28 12.28"/>
<path d="M777.51 48.2902C806.34 58.0602 835 69.9802 855.17 88.7002C875.34 107.42 885.44 134.33 873.34 156.85C857.18 186.93 805.98 204.42 805.74 237.01C805.57 260.35 833.35 278.16 861.4 286.65C889.44 295.13 920.49 298.19 946 310.59C984.49 329.3 1002.54 365.52 1009.93 400.27C1017.6 436.35 1014.49 477.43 981.56 503.61C940.63 536.15 872.93 532.48 814.98 525.54C737.65 516.28 660.66 505.4 583.69 494.53C414.95 470.69 246.21 446.84 77.4699 423C59.3799 420.44 40.5499 417.65 25.8499 409.08C-3.3401 392.07 -5.8201 356.95 11.1499 331.88C28.1199 306.81 59.5099 289.78 90.6899 275.03C121.87 260.29 154.79 246.35 178.15 224.58C201.5 202.81 213.12 170.59 195.45 145.81C180.48 124.82 148.31 113.6 134.29 92.2202C115.81 64.0502 137.07 28.0702 170.6 10.0902C204.13 -7.88981 625.19 -3.3498 777.51 48.2902V48.2902Z" fill="#CCCCCC" fill-opacity="0.2"/>
<path d="M843.9 361.68L831.15 364.22L829.32 355.05C828.08 348.81 822.3 344.69 816.45 345.85L753.6 358.39C747.75 359.56 743.99 365.58 745.24 371.82L747.07 380.99L734.32 383.53C732.87 383.82 731.94 385.32 732.24 386.86L745.59 453.81C745.9 455.35 747.34 456.38 748.79 456.09L858.39 434.23C859.84 433.94 860.77 432.44 860.47 430.9L847.12 363.95C846.79 362.42 845.35 361.39 843.9 361.68V361.68ZM828.11 364.83L750.09 380.39L748.26 371.22C747.37 366.76 750.05 362.46 754.23 361.63L817.08 349.09C821.26 348.26 825.39 351.2 826.28 355.66L828.11 364.83V364.83Z" fill="#ED3237"/>
<path d="M802.12 405.71L789.03 408.32L733.52 390.93L733.89 390.4L789.17 407.72L801.76 405.21L846.17 368L846.71 368.35L802.12 405.71Z" fill="white"/>
<path d="M502.07 256.76C502.07 256.76 490.02 252.79 487.65 254.18C485.28 255.57 473.04 272.03 473.04 272.03L489.43 279.85L507.99 267.81L502.07 256.76ZM791.31 336.99C791.31 336.99 801.13 356.89 799.07 360.44C797 364 774.77 368 774.77 368L768.82 348.04L779.43 336.98H791.31V336.99Z" fill="#FCD2B1"/>
<path d="M620.83 656.43L569.02 673.24H632.09V656.43H620.83ZM749.24 656.43L701.92 673.24H764.46L761.25 656.43H749.24Z" fill="black"/>
<path d="M647.22 311.97L614.52 664.09H635.61C635.61 664.09 685.75 517.93 669.02 498.59C674.4 474.64 708.65 379.76 700.74 369.63C692.83 359.5 678.33 306.61 678.33 306.61L647.22 311.97Z" fill="#00AFEF"/>
<path d="M655.02 321.46L672.02 344.87L742.12 664.09H764.39C764.39 664.09 766.24 503.95 750.28 483.73C743.9 447.55 740.88 324.48 736.17 310.99C714.89 309.93 659.02 303.37 659.02 303.37L655.02 321.46Z" fill="#00AFEF"/>
<path d="M773.87 149C763.01 131.94 731.54 133.51 707.5 131.25C700.54 130.6 694.73 127.67 689.79 127L657.06 136.86C655.18 137.26 628.88 139.19 625.87 141C625.51 141.42 597.02 241.66 501.87 255C502.87 262 501.87 272 501.87 272C501.87 272 599.86 274.84 630.66 217.44C637.42 280.31 647.22 311.97 647.22 311.97L737.22 315.93C737.22 315.93 741.86 220.01 751.86 198.01C803.86 231.01 774.86 340.01 774.86 340.01C774.86 340.01 778.86 342.01 791.86 340.01C821.87 264 787.87 171 773.87 149Z" fill="#055B7A"/>
<path d="M669.02 146.25L679.5 161.21L700.74 128.88L693.02 124L669.02 146.25ZM669.02 146.25L665.76 161.21L655.02 138.23L659.02 131.25L669.02 146.25Z" fill="#F2F2F2"/>
<path d="M666.83 157.39L669.02 164.16L658.41 281.21C658.41 281.21 671.96 335.15 672.87 331.85C673.78 328.55 687.06 285.58 687.06 285.58L674.97 164.33L676.03 157.32L669.03 146.24L666.83 157.39V157.39Z" fill="#FFCC29"/>
<path d="M693.06 38.3198C704.06 47.3198 709.06 68.3198 704.06 79.3198C699.06 90.3198 686.06 96.3198 681.06 102.32C671.06 90.3198 657.06 82.3198 657.06 82.3198L664.06 52.3198L678.06 45.3198L693.06 38.3198Z" fill="black"/>
<path d="M659.06 107.9V133.9L669.06 148.9L693.06 126.65L683.56 80.6001L659.06 107.9Z" fill="#FCD2B1"/>
<path d="M628.35 46.9899C631.15 78.0999 616.27 108.23 633.02 117.71C636.76 122.42 674.4 127.61 679.07 113.47C683.74 99.3299 695.64 59.2499 686.29 46.9899C676.95 34.7299 628.35 46.9899 628.35 46.9899V46.9899Z" fill="#FFE3CA"/>
<path d="M672.06 50.3198C670.06 58.3198 672.06 73.3198 680.06 75.3198C680.06 79.1398 679.65 85.8098 679.36 90.1398C679.322 90.7073 679.396 91.2767 679.579 91.8151C679.763 92.3534 680.051 92.8501 680.428 93.2761C680.805 93.7022 681.262 94.0492 681.774 94.297C682.286 94.5448 682.842 94.6886 683.41 94.7198C685.29 94.8198 687.06 94.7998 687.06 94.3198C687.06 93.3198 693.06 50.3198 693.06 50.3198H672.06V50.3198Z" fill="black"/>
<path d="M694.744 83.3304C696.318 77.4627 694.71 71.9323 691.152 70.9779C687.594 70.0235 683.434 74.0065 681.86 79.8741C680.286 85.7418 681.894 91.2722 685.452 92.2267C689.01 93.1811 693.17 89.1981 694.744 83.3304Z" fill="#FFE3CA"/>
<path d="M681.06 74.32L680.06 92.32L685.06 93.32L687.06 68.32L681.06 74.32ZM693.42 52.2199C676.832 56.2275 659.904 58.6715 642.86 59.5199C634.07 59.9599 624.3 59.62 617.88 53.6C612.59 48.64 610.86 40.5199 612.84 33.5399C614.82 26.5599 620.12 20.7999 626.51 17.3699C632.9 13.9399 640.28 12.6799 647.53 12.7799C644.78 12.3099 642.39 15.4899 642.93 18.2299C643.47 20.9699 646.06 22.9199 648.77 23.6099C651.48 24.2999 654.32 23.9799 657.11 23.7599C664.1 23.2199 671.2 23.3499 677.99 25.0799C684.78 26.7999 691.54 30.48 694.76 36.71C697.98 42.94 696.25 51.93 689.9 54.89" fill="black"/>
<path d="M35.1199 673.24H978.87C986.03 673.24 991.83 679.04 991.83 686.2V755.03C991.83 762.19 986.03 767.99 978.87 767.99H35.1199C27.9599 767.99 22.1599 762.19 22.1599 755.03V686.2C22.1599 679.04 27.9599 673.24 35.1199 673.24Z" fill="#00A859"/>
<path d="M472.83 256.76C472.83 256.76 484.89 252.79 487.25 254.18C489.61 255.57 501.86 272.03 501.86 272.03L485.47 279.85L466.91 267.81L472.83 256.76V256.76ZM183.59 336.99C183.59 336.99 173.77 366.29 175.83 371.53C177.9 376.77 200.13 382.66 200.13 382.66L198.06 359.83L203.75 368.91L206.34 359.83L195.48 337H183.59V336.99Z" fill="#FCD2B1"/>
<path d="M354.08 656.43L405.89 673.24H342.81V656.43H354.08ZM225.67 656.43L272.99 673.24H210.45L213.66 656.43H225.67Z" fill="black"/>
<path d="M325.32 316.2L360.38 664.09H339.29C339.29 664.09 289.15 517.93 305.88 498.59C300.5 474.64 266.25 379.76 274.16 369.63C282.07 359.5 296.57 306.61 296.57 306.61L325.32 316.2Z" fill="#055B7A"/>
<path d="M319.89 321.46L302.89 344.87L232.79 664.09H210.52C210.52 664.09 208.67 503.95 224.63 483.73C231.01 447.55 234.99 321.46 246.7 312.95C267.98 311.89 315.89 303.37 315.89 303.37L319.89 321.46V321.46Z" fill="#055B7A"/>
<path d="M327.04 359L305.04 311L261.04 359L241.04 323C241.04 323 233.04 220 223.04 198C171.04 231 200.04 340 200.04 340C200.04 340 196.04 342 183.04 340C153.04 264 187.04 171 201.04 149C211.9 131.94 243.8 128.11 267.84 125.85C274.8 125.2 284.6 130.78 289.54 130.11C289.54 130.11 311.89 129.36 330.89 134.64L330.91 134.65C339.11 136.93 346.03 139.19 349.04 141C355.04 148 327.04 359 327.04 359Z" fill="#00AFEF"/>
<path d="M349.04 141C349.04 141 366.04 240 473.04 255C472.04 262 473.04 272 473.04 272C473.04 272 370.04 275 342.04 213C333.04 154 349.04 141 349.04 141Z" fill="#00AFEF"/>
<path d="M325.32 133.14L306.34 252.13L267.84 125.85C274.8 125.2 281.1 124.67 286.04 124L325.32 133.14V133.14Z" fill="white"/>
<path d="M281.88 35.6699C270.88 44.6699 265.88 65.6699 270.88 76.6699C275.88 87.6699 288.88 93.6699 293.88 99.6699C303.88 87.6699 317.88 79.6699 317.88 79.6699L310.88 49.6699L296.88 42.6699L281.88 35.6699V35.6699Z" fill="black"/>
<path d="M315.88 105.25V131.25L305.88 146.25L281.88 124L291.38 77.9502L315.88 105.25Z" fill="#FCD2B1"/>
<path d="M350.88 44.6699C347.88 77.6699 349.88 114.67 345.88 119.67C341.88 124.67 301.88 124.67 296.88 109.67C291.88 94.6699 278.88 57.6699 288.88 44.6699C298.88 31.6699 350.88 44.6699 350.88 44.6699V44.6699Z" fill="#FFE3CA"/>
<path d="M302.88 47.6699C304.88 55.6699 302.88 70.6699 294.88 72.6699C294.88 76.4899 295.29 83.1599 295.58 87.4899C295.618 88.0574 295.544 88.6268 295.361 89.1652C295.177 89.7036 294.889 90.2002 294.512 90.6262C294.135 91.0523 293.678 91.3993 293.166 91.6471C292.654 91.8949 292.098 92.0387 291.53 92.0699C289.65 92.1699 287.88 92.1499 287.88 91.6699C287.88 90.6699 281.88 47.6699 281.88 47.6699H302.88Z" fill="black"/>
<path d="M289.471 89.6227C293.029 88.6683 294.638 83.1379 293.064 77.2702C291.49 71.4025 287.329 67.4195 283.771 68.3739C280.213 69.3283 278.605 74.8588 280.179 80.7264C281.753 86.5941 285.913 90.5771 289.471 89.6227Z" fill="#FFE3CA"/>
<path d="M293.88 71.6702L294.88 89.6702L289.88 90.6702L287.88 65.6702L293.88 71.6702ZM298.23 49.1202C303.97 53.6902 311.59 55.8302 318.86 54.9102C324.62 54.1802 330.09 51.6502 335.89 51.5102C340.33 51.4002 344.67 52.7102 349.09 53.1302C354.19 53.6102 359.55 52.8402 363.86 50.0702C368.17 47.3002 371.23 42.3202 370.86 37.2102C370.35 30.0802 363.44 24.7502 356.38 23.5902C349.32 22.4302 342.18 24.4502 335.32 26.4902C328.47 28.5202 321.35 30.6102 314.28 29.5802C309.33 28.8602 304.7 26.6302 299.76 25.8102C294.41 24.9102 288.78 25.7302 283.91 28.1102C280.23 29.9102 276.93 32.6402 274.9 36.2102C272.87 39.7802 272.25 44.2102 273.66 48.0602C274.93 51.5202 277.75 54.2902 281.05 55.9302C284.35 57.5702 288.1 58.1502 291.79 58.0802L298.23 49.1202V49.1202Z" fill="black"/>
<path d="M305.88 146.25L295.41 161.21L274.17 128.88L281.88 124L305.88 146.25ZM305.88 146.25L309.14 161.21L319.89 138.23L315.88 131.25L305.88 146.25Z" fill="#F2F2F2"/>
<path d="M308.07 156.31L305.88 162.42L314.96 198.05C314.96 198.05 307.24 255.11 306.33 252.13C305.42 249.15 289.11 195.63 289.11 195.63L299.94 162.57L298.88 156.25L305.88 146.25L308.07 156.31Z" fill="#FFCC29"/>
<path d="M474.8 276.79C476.73 274.09 482.53 266.86 482.53 266.86L497.21 276.79L487.17 283.36L474.8 276.79V276.79ZM502.27 256.76C502.27 256.76 494.75 253.11 489.7 252.79C484.65 252.47 478 259.66 478 259.66C478 259.66 478.21 260.95 480.9 260.95C483.58 260.95 488.95 258.37 488.95 258.37L502.5 264.05L502.27 256.76V256.76Z" fill="#FFE3CA"/>
</svg>
